<svg width="28" height="28" viewBox="0 0 28 28" fill="none" xmlns="http://www.w3.org/2000/svg">
<rect opacity="0.01" width="28" height="28" fill="white"/>
<path fill-rule="evenodd" clip-rule="evenodd" d="M14 17.8232C12.9254 17.8218 11.9337 17.2531 11.4 16.3321C11.2029 16.0261 11.1917 15.6379 11.3707 15.3212C11.5497 15.0045 11.8902 14.8102 12.2575 14.8151C12.6247 14.82 12.9597 15.0233 13.13 15.3447C13.3536 15.7343 13.8148 15.9266 14.2535 15.8131C14.6922 15.6995 14.9986 15.3087 15 14.8609C15.0012 14.6879 14.9564 14.5176 14.87 14.3672C14.6729 14.0611 14.6617 13.6729 14.8407 13.3562C15.0197 13.0395 15.3602 12.8452 15.7275 12.8501C16.0947 12.855 16.4297 13.0583 16.6 13.3797C17.1361 14.2966 17.1359 15.4262 16.5995 16.3428C16.0632 17.2595 15.0721 17.8238 14 17.8232ZM25.82 15.4533C25.933 15.2755 25.9952 15.0708 26 14.8609C25.9995 14.6595 25.9367 14.4631 25.82 14.298C24.9582 13.0594 23.9286 11.9431 22.76 10.9803C22.3347 10.6312 21.7035 10.6887 21.35 11.1086C20.9965 11.5285 21.0547 12.1519 21.48 12.5009C22.3368 13.2042 23.1085 14.0027 23.78 14.8806C21.528 18.0268 17.9007 19.9349 14 20.0251C11.9368 20.0228 9.91372 19.4628 8.15 18.4058C7.39974 17.9529 6.43793 18.0371 5.78 18.6131L4.19 20.0054C3.77579 20.368 3.73773 20.9936 4.105 21.4026C4.47227 21.8116 5.10579 21.8492 5.52 21.4865L7.13 20.1041C9.20204 21.3429 11.5778 21.9985 14 22C18.7968 21.8924 23.2262 19.4391 25.82 15.4533ZM4.65 16.9246C4.85158 16.7544 4.97641 16.5121 4.99704 16.251C5.01767 15.9899 4.9324 15.7314 4.76 15.5323C4.57 15.3151 4.39 15.088 4.22 14.8609C6.47203 11.7147 10.0993 9.80663 14 9.71636C15.0766 9.71551 16.1477 9.8685 17.18 10.1706C17.8275 10.3661 18.5312 10.2249 19.05 9.79535L21.63 7.72175C22.0263 7.36989 22.0735 6.77297 21.7374 6.36462C21.4012 5.95627 20.7998 5.88001 20.37 6.19123L17.75 8.27471C16.5331 7.91582 15.27 7.73289 14 7.73162C9.20702 7.83489 4.77844 10.2803 2.18 14.2585C2.06353 14.4421 2.0012 14.6541 2 14.8707C2.00048 15.0721 2.06329 15.2685 2.18 15.4336C2.51006 15.905 2.86383 16.3598 3.24 16.7962C3.41238 16.9953 3.65779 17.1185 3.92222 17.1389C4.18665 17.1593 4.44844 17.0751 4.65 16.9049V16.9246Z" fill="black"/>
</svg>
