<svg width="28" height="28" viewBox="0 0 28 28" fill="none" xmlns="http://www.w3.org/2000/svg">
<rect opacity="0.01" width="28" height="28" fill="white"/>
<path fill-rule="evenodd" clip-rule="evenodd" d="M13.9852 21C9.19812 20.8983 4.77501 18.4893 2.17978 14.5705C2.06321 14.4078 2.00048 14.2144 2 14.016C2 13.8086 2.06251 13.6056 2.17978 13.4324C4.69941 9.43564 9.16953 7 13.9852 7C18.8008 7 23.271 9.43564 25.7906 13.4324C26.0168 13.7166 26.0636 14.0992 25.9122 14.4271C25.7608 14.7551 25.436 14.975 25.0676 14.9989C24.6992 15.0228 24.3473 14.8468 24.1526 14.5413C21.9265 11.1493 18.1173 9.0539 13.9852 8.94828C10.0946 9.038 6.47656 10.9134 4.22725 14.0063C6.47656 17.0992 10.0946 18.9746 13.9852 19.0643C16.6769 19.0445 19.2782 18.1163 21.3461 16.4381C21.7753 16.1315 22.376 16.2066 22.7118 16.6089C23.0475 17.0111 23.0004 17.5991 22.6045 17.9457C20.1807 19.9042 17.1346 20.9836 13.9852 21ZM16.9815 13.8118C16.9815 12.2002 15.64 10.8937 13.9852 10.8937C13.4336 10.8937 12.9864 11.3292 12.9864 11.8664C12.9864 12.4036 13.4336 12.8391 13.9852 12.8391C14.5368 12.8391 14.984 13.2746 14.984 13.8118C14.984 14.349 14.5368 14.7845 13.9852 14.7845C13.4336 14.7845 12.9864 14.349 12.9864 13.8118C12.9864 13.2746 12.5393 12.8391 11.9877 12.8391C11.4361 12.8391 10.9889 13.2746 10.9889 13.8118C10.9889 15.4234 12.3304 16.7299 13.9852 16.7299C15.64 16.7299 16.9815 15.4234 16.9815 13.8118Z" fill="black"/>
</svg>
