<svg width="176" height="176" viewBox="0 0 176 176" fill="none" xmlns="http://www.w3.org/2000/svg">
<path fill-rule="evenodd" clip-rule="evenodd" d="M88 176C136.601 176 176 136.601 176 88C176 39.3989 136.601 0 88 0C39.3989 0 0 39.3989 0 88C0 136.601 39.3989 176 88 176Z" fill="black"/>
<rect opacity="0.01" x="52.25" y="52.25" width="71.5" height="71.5" fill="white" stroke="white" stroke-width="5.5"/>
<path fill-rule="evenodd" clip-rule="evenodd" d="M116.875 90.7473H57.75C56.2312 90.7473 55 89.5173 55 88C55 86.4827 56.2312 85.2527 57.75 85.2527H113.217L96.7175 70.8293C95.9757 70.1815 95.6362 69.1876 95.8269 68.2219C96.0176 67.2562 96.7095 66.4655 97.6419 66.1477C98.5744 65.8298 99.6057 66.0331 100.347 66.6809L119.598 83.4944C120.898 84.6285 121.354 86.4517 120.741 88.0637C120.127 89.6757 118.574 90.7355 116.847 90.7198L116.875 90.7473ZM100.347 109.319L111.347 99.7036C112.494 98.7021 112.611 96.9617 111.609 95.8161C110.606 94.6705 108.864 94.5537 107.717 95.5551L96.7175 105.171C95.5708 106.172 95.4539 107.913 96.4562 109.058C97.4586 110.204 99.2008 110.321 100.347 109.319Z" fill="white"/>
</svg>
