<svg width="25" height="16" viewBox="0 0 25 16" fill="none" xmlns="http://www.w3.org/2000/svg">
<path fill-rule="evenodd" clip-rule="evenodd" d="M8.17368 16C7.93061 15.9997 7.69599 15.9108 7.51368 15.7501L0.513681 9.63311C0.0407598 9.22052 -0.125101 8.55723 0.0979995 7.97076C0.3211 7.38429 0.88597 6.99871 1.51368 7.0044H23.0037C23.556 7.0044 24.0037 7.4519 24.0037 8.00391C24.0037 8.55593 23.556 9.00342 23.0037 9.00342H2.83368L8.83368 14.2509C9.14541 14.5256 9.25458 14.9645 9.10791 15.3532C8.96124 15.7419 8.58931 15.9994 8.17368 16ZM4.83368 5.25526L8.83368 1.75697C9.10342 1.52129 9.22687 1.15968 9.15753 0.808353C9.08819 0.45703 8.8366 0.169366 8.49753 0.0537223C8.15846 -0.0619213 7.78342 0.0120242 7.51368 0.247704L3.51368 3.74599C3.24395 3.98167 3.1205 4.34328 3.18983 4.69461C3.25917 5.04593 3.51076 5.33359 3.84983 5.44924C4.1889 5.56488 4.56395 5.49094 4.83368 5.25526Z" fill="black"/>
</svg>
